<?xml version="1.0" encoding="UTF-8" standalone="no"?>
<svg id="svg162" xmlns:rdf="http://www.w3.org/1999/02/22-rdf-syntax-ns#" xmlns="http://www.w3.org/2000/svg" height="540.38" width="889.58" version="1.1" xmlns:cc="http://creativecommons.org/ns#" xmlns:dc="http://purl.org/dc/elements/1.1/" viewBox="0 0 711.66079 432.3">
 <metadata id="metadata258">
  <rdf:RDF>
   <cc:Work rdf:about="">
    <dc:format>image/svg+xml</dc:format>
    <dc:type rdf:resource="http://purl.org/dc/dcmitype/StillImage"/>
   </cc:Work>
  </rdf:RDF>
 </metadata>
 <path id="path260-4-6-7-3-2-4" opacity="0.99" d="m124.33 363.31a54.118 54.118 0 1 1 -108.24 0 54.118 54.118 0 1 1 108.24 0z" transform="matrix(.85946 0 0 .85946 604.81 -35.491)" fill="#c2d995"/>
 <path id="path260-4-6-7-3-2" opacity="0.99" d="m124.33 363.31a54.118 54.118 0 1 1 -108.24 0 54.118 54.118 0 1 1 108.24 0z" transform="matrix(.85946 0 0 .85946 480.19 -35.491)" fill="#d3779c"/>
 <path id="path260-4-6-7-3" opacity="0.99" d="m124.33 363.31a54.118 54.118 0 1 1 -108.24 0 54.118 54.118 0 1 1 108.24 0z" transform="matrix(.85946 0 0 .85946 357.62 -35.491)" fill="#f39f56"/>
 <path id="path260-4-6-7" opacity="0.99" d="m124.33 363.31a54.118 54.118 0 1 1 -108.24 0 54.118 54.118 0 1 1 108.24 0z" transform="matrix(.85946 0 0 .85946 234.17 -35.491)" fill="#3fbde3"/>
 <path id="path260-4-6" opacity="0.99" d="m124.33 363.31a54.118 54.118 0 1 1 -108.24 0 54.118 54.118 0 1 1 108.24 0z" transform="matrix(.85946 0 0 .85946 110.43 -35.491)" fill="#ec6925"/>
 <path id="path260-4" opacity="0.99" d="m124.33 363.31a54.118 54.118 0 1 1 -108.24 0 54.118 54.118 0 1 1 108.24 0z" fill-opacity=".99216" transform="matrix(.85946 0 0 .85946 -13.602 -35.491)" fill="#fddb00"/>
 <g id="#010101ff" fill="#010101" transform="translate(-7.38,-23.25)">
  <path id="path182" d="m686.99 25.79c10.65 1.02 21.25-1.04 31.76-2.54-0.83 3.36-1.72 6.71-2.49 10.09-3.68 0.48-7.37 0.91-11.08 1.08 6.34 4.96 11.29 12.28 11.47 20.54 0.49 6.65-2.1 13.24-6.3 18.31-3.04 3.53-7.04 6.04-11.05 8.31 5.86 2.85 11.3 6.97 14.57 12.72 5.37 9.3 4.79 21.62-1.26 30.47-5.43 7.77-14.31 12.68-23.55 14.31-8.78 1.33-18.17 1.1-26.28-2.91-8.03-3.45-14.03-9.98-19.79-16.31 2.62-1.71 5.22-3.46 7.75-5.3 6.3 6.3 13.21 12.93 22.29 14.66 8.22 1.27 17.22 0.91 24.41-3.72 5.81-3.36 10.73-9.44 10.16-16.5 0-10.96-9.56-19.57-19.69-21.89-9.34-2.21-18.71 0.88-27.6 3.5 0.99-3.46 1.53-7.03 2.47-10.51-8.12-4.41-14.68-12.6-15.24-22.05-0.66-10.98 5.09-22.22 14.84-27.52 7.41-4.18 16.2-5.44 24.61-4.74m-11.56 9.94c-6.75 1.31-12.67 5.83-15.96 11.83-3.42 6.31-2.86 14.61 1.66 20.25 4.74 5.86 12.34 9.21 19.86 8.94 5.99 0.27 12.21-0.98 17.09-4.63 5.23-3.57 9.31-9.53 8.69-16.12 0.41-7.55-5.07-13.86-11.14-17.58-6.01-3.7-13.44-3.57-20.2-2.69z"/>
  <path id="path184" d="m519.4 26.74c10.82-2.41 22.71-0.44 31.88 5.88 7.98 5.76 14.65 13.8 17.41 23.37 3.98 12.85 1.67 27.55-6.42 38.35-5.28 6.94-12.42 12.71-20.82 15.33-9.69 3.22-20.56 2.64-29.89-1.49-11.28-5.32-20.06-15.68-23.3-27.75-3.94-12.85-0.88-27.33 7.26-37.91 5.98-7.63 14.4-13.51 23.88-15.78m1.04 9.93c-11.41 2.93-20.41 12.77-23.03 24.17-4.94 17.17 7.18 36.89 24.66 40.41 6.45 0.95 13.36 0.85 19.36-1.99 9.08-4.23 15.85-12.85 18.41-22.47 2.02-9.11 0.53-19.15-4.85-26.88-7.37-10.84-21.7-17.3-34.55-13.24z"/>
  <path id="path186" d="m617.47 28.67c5.3-2.68 11.36-2.56 17.14-2.38-1.43 2.95-2.47 6.07-3.78 9.08-5.29-0.14-10.83 0.99-14.86 4.62-8.54 7.31-12.13 19.05-11.74 30.01 0.1 13.39-0.01 26.79 0.04 40.18-3.28 0.29-6.52 0.91-9.74 1.58-0.14-28.1-0.01-56.2-0.06-84.3 3.26-0.48 6.52-0.99 9.8-1.35-0.02 5.45-0.12 10.9 0.29 16.33 3.01-5.55 6.82-11.3 12.91-13.77z"/>
  <path id="path188" d="m11.3 26.48c42.1-0.17 84.2 0 126.29-0.09-0.01 2.88 1.03 5.66 0.89 8.55 0.01 10.38 1.69 20.69 1.89 31.07-3.02 1.89-6.78 1.83-10.2 1.5-2.55-9.15-5.72-19.23-13.93-24.9-9.09-5.46-20.14-3.88-30.24-4.11-4.55 0.19-9.24-0.59-13.69 0.52-3.43 1.08-2.85 5.16-3.04 7.98 0.05 19.1-0.09 38.21 0.08 57.32 11.32-0.11 22.72 0.63 33.94-1.19 3.4-0.57 6.73-2.27 8.62-5.23 2.62-4.18 3.43-9.14 4.57-13.85 3.31-0.13 6.63-0.26 9.94-0.37-0.05 18.27 0.01 36.54-0.03 54.81-3.29-0.06-6.57-0.37-9.86-0.16-1.18-5.06-1.99-10.45-5.08-14.78-2.84-3.83-7.93-4.85-12.41-5.12-9.91-0.21-19.82-0.22-29.74-0.11 0.04 17.89-0.22 35.8 0.15 53.69 0.23 4.72 0.82 10.66 5.41 13.24 4.64 2.37 9.99 2.68 15.09 3.14 11.17 0.15 23.02 0.99 33.33-4.17 4.11-1.96 7.2-5.47 9.56-9.3 4.27-6.49 7.98-13.38 10.73-20.66 3.42 0.16 6.82 0.54 10.2 1.11-2.08 14.93-5.56 29.63-9.12 44.27-45.76 0.19-91.52 0.18-137.27 0 0.22-3.02 0.34-6.05 0.23-9.08 6.86-0.69 14.39-0.6 20.34-4.59 5.08-3.99 4.49-11.2 4.72-16.99 0.09-36.66 0.05-73.32 0.02-109.97-0.31-5.89 0.51-12.54-3.12-17.6-4.61-4.85-11.93-4.83-18.15-5.11-0.04-3.27-0.06-6.55-0.12-9.82z"/>
  <path id="path190" d="m167.46 26.48c27.85-0.15 55.7-0.04 83.54-0.06 10.1 0.66 20.4 1.98 29.78 5.99 12 5.67 21.83 16.46 25.27 29.41 2.03 7.22 1.64 14.81 1.32 22.21-1.42 10.69-5.43 21.45-13.25 29.13-12.94 13.32-32.01 18.9-50.17 19.18-6.88-0.78-13.54-2.9-20.33-4.18 0.12 17.13-0.82 34.33 1.19 51.37 0.74 3.83 3.6 7 7.16 8.48 5.56 2.22 11.63 2.47 17.54 2.66-0.15 3.03-0.19 6.07-0.01 9.11-27.98-0.14-55.96 0-83.94-0.08 0.17-3.02 0.3-6.04 0.42-9.07 6.51-0.37 14.29-0.37 19.01-5.59 3.46-5.27 3.17-11.98 3.49-18.03 0.07-33.34 0-66.68 0.03-100.01-0.09-6.26 0.29-12.59-0.96-18.77-0.59-4.31-3.14-8.63-7.51-9.94-3.97-1.74-8.82-0.86-12.46-3.23-0.23-2.85-0.13-5.72-0.12-8.58m61.49 11.7c-4.76 1.23-5.14 6.76-5.35 10.81-0.13 19.34 0.05 38.67-0.08 58.01-0.02 3.51 0.15 7.01 0.44 10.51 3.97 0.81 7.93 1.86 11.99 2.13 6.03 0.45 12.13-1.33 17.22-4.53 8.4-5.57 13.3-15.21 14.86-24.98 2.42-12.35 1.86-25.83-3.98-37.18-6.33-12.36-21.92-18.48-35.1-14.77z"/>
  <path id="path192" d="m325.61 26.49c26.99-0.15 53.99-0.11 80.98-0.01-0.11 3.27-0.35 6.53-0.32 9.81-5.33 0.29-11.05 0.41-15.7 3.35-4.4 3.23-5.06 9.25-5.17 14.3 0.03 33.36 0 66.71 0.02 100.06-0.37 15.12-1.14 30.61-6.56 44.91-5.7 14.92-17.18 27.09-30.66 35.39-7.26 4.36-15.08 7.98-23.44 9.61-1.15-3.4-2.41-6.77-3.62-10.15 6.54-3.24 13.25-6.95 17.51-13.09 6.7-9.13 7.94-20.77 8.99-31.7 1.01-8.96 0.94-17.98 1.15-26.97 0.02-31.67 0-63.33 0.01-95-0.05-6.01 0.25-12.05-0.5-18.03-0.5-3.52-1.81-7.34-5.09-9.2-5.09-2.99-11.19-3.24-16.94-3.46-0.11-3.28-0.41-6.55-0.66-9.82z"/>
  <path id="path194" d="m442.39 101.1c2.57-3.44 5.43-6.64 8.41-9.72 2.68 3.18 6.33 5.79 8.04 9.64-1.29 4.14-5.15 6.81-7.87 10.01-3.12-3.07-5.92-6.46-8.58-9.93z"/>
  <path id="path196" d="m253.56 385.32c1.42-0.02 2.85-0.04 4.29-0.06 0.64 6.59 0.53 13.22 0.42 19.84 3.58-2.06 7.45-4.08 11.71-3.84 4.58-0.17 9.6 1.56 12.05 5.66 1.77 2.67 1.64 5.98 1.7 9.05-0.08 8.45 0.08 16.92-0.19 25.38-1.41 0.1-2.81 0.22-4.21 0.35-0.12-8.58-0.05-17.16-0.01-25.74-0.01-3.2-0.26-7.07-3.19-9.03-5.8-3.85-15.29-1.29-17.53 5.52-0.92 9.51 0.44 19.14-0.82 28.65-1.42 0.15-2.84 0.3-4.26 0.45-0.14-18.74-0.21-37.49 0.04-56.23z"/>
  <path id="path198" d="m372.44 385.65c1.8-1.37 2.82 1.47 3.97 2.47-0.45 1.8-1.21 3.77-3.37 3.86-2.95-0.86-3.8-5.18-0.6-6.33z"/>
  <path id="path200" d="m492.29 388.96c-0.44-3.09 3.21-3.3 5.31-3.81-0.11 2.4-0.31 4.8-0.58 7.19-1.8-0.89-5.02-0.57-4.73-3.38z"/>
  <path id="path202" d="m712.15 385.43c1.43-0.31 2.88-0.62 4.33-0.92 0.23 17.85 0.1 35.71 0.1 53.57 0.66 2.89-2.74 3.27-4.72 3.83-0.23-14.64-0.01-29.27-0.12-43.91-0.05-4.19 0.09-8.39 0.41-12.57z"/>
  <path id="path204" d="m17.83 401.59c1.47-0.06 2.93-0.13 4.4-0.17 4.87 9.46 10.01 18.79 15.47 27.92 4.23-8.72 8.1-17.63 12.51-26.25 0.73-2.2 3.39-1.32 5.13-1.77-2.57 7.68-6.69 14.67-10.09 21.98-3.51 7.47-7.38 14.76-10.77 22.28-1.51 3.05-2.78 6.27-4.83 9.02-1.42-0.08-2.84-0.18-4.26-0.06 2.3-5.63 5.03-11.06 7.79-16.46 0.6-1.63 1.94-3.47 0.92-5.18-5.21-10.55-11.91-20.36-16.27-31.31z"/>
  <path id="path206" d="m73.57 401.96c5.94-1.41 12.76-0.99 17.76 2.86 5.23 3.97 8.76 10.55 8.34 17.21 0.03 5.16-2.33 10.12-5.79 13.86-5.23 5.25-13.57 7.37-20.58 4.73-6.08-2.07-10.95-7.25-12.71-13.42-3.66-10.04 3.07-21.99 12.98-25.24m0.86 4.58c-6.27 2.23-10.55 8.85-10.09 15.48 0 9.42 10.21 17.68 19.38 14.64 7.7-2.19 13.11-10.69 11.16-18.57-1.81-8.74-11.91-15.12-20.45-11.55z"/>
  <path id="path208" d="m109.63 401.67c1.63-0.12 3.25-0.22 4.88-0.33-0.16 8.9-0.16 17.81-0.09 26.71-0.11 3.87 1.72 8.49 5.92 9.32 3.87 0.46 8.83 0.98 11.55-2.45 2.89-3.97 3.53-9.1 3.57-13.88-0.04-6.5-0.05-13 0.02-19.5 1.47-0.09 2.94-0.18 4.41-0.27 0.7 9.23 0.17 18.49 0.4 27.73 0.17 4.15-0.34 8.27-0.7 12.4-1.34 0.1-2.68 0.19-4.01 0.32-0.14-1.73-0.27-3.46-0.4-5.17-4.64 4.14-11.06 6.5-17.2 4.46-5.79-1.28-8.23-7.62-8.4-12.95-0.2-8.8-0.04-17.6 0.05-26.39z"/>
  <path id="path210" d="m152.43 401.44c1.36-0.03 2.72-0.06 4.09-0.08 0.32 2.22 0.64 4.44 0.92 6.68 2.04-2.41 4.12-5.01 7.13-6.23 2.28-0.54 4.64-0.42 6.97-0.52-0.75 1.06-1.23 2.27-1.87 3.4-2.45 1.36-5.39 1.69-7.68 3.36-3.3 2.98-4.89 7.54-4.8 11.93 0.01 6.93 0.01 13.87 0.14 20.8-1.43 0.27-2.86 0.57-4.3 0.75-0.85-1.71-0.61-3.68-0.7-5.51 0.13-11.52 0.01-23.05 0.1-34.58z"/>
  <path id="path212" d="m207.54 408.53c3.28-3.04 6.69-6.74 11.44-7.12 4.3-0.28 8.99-0.5 12.8 1.91 6.02 3.79 10.92 10.29 10.93 17.65 0.3 6.91-3.23 13.9-9.14 17.56-4.71 3.09-10.69 3.81-16.15 2.71-3.75-1.24-7.16-3.33-10.32-5.66-0.61 6.24-0.46 12.53-0.28 18.79-1.48 0.14-2.96 0.28-4.44 0.4-0.07-17.7 0.03-35.39 0-53.09 0.99-0.11 2.98-0.34 3.97-0.46 0.46 2.42 0.86 4.86 1.19 7.31m9.02-1.78c-7.46 3.09-11.75 12.21-9.01 19.9 1.85 6.61 8.71 10.9 15.47 10.23 8.81 0.48 16.02-8.42 14.83-16.93 0.02-10.31-12.06-17.49-21.29-13.2z"/>
  <path id="path214" d="m323.53 401.39c1.54 0.05 3.07 0.13 4.62 0.19-3.47 8.79-8.25 16.98-12.09 25.62-4.59 9.13-9.05 18.32-13.44 27.55-1.57-0.07-3.13-0.17-4.69-0.23 1.85-3.41 3.09-7.11 4.97-10.49 1.59-3.17 3.53-6.33 3.95-9.91-0.45-2.55-1.88-4.76-3.07-7.01-4.7-8.21-8.96-16.66-13.64-24.89 1.47 0.05 2.81-0.31 4.02-1.07 5.96 9 10.39 18.9 15.91 28.16 0.2-2.5 2.52-3.91 3.29-6.17 3.18-7.35 7.1-14.35 10.17-21.75z"/>
  <path id="path216" d="m338.23 403.19c5.94-3.27 14.71-2.82 19.1 2.84-0.36 0.61-1.07 1.83-1.42 2.44-4.29-0.74-8.34-3.87-12.84-2.53-3.47 0.55-6.49 4.35-5.22 7.83 4.26 6.99 15.42 3.8 19.33 11.18 3.5 5.78-0.29 13.7-6.47 15.7-6.63 2.83-14.07 0.18-18.89-4.77 1.05-0.85 2.15-1.66 3.32-2.36 3.88 1.4 7.49 4.63 11.87 3.7 2.58-0.61 5.64-1.86 6.4-4.68 0.44-2.21 0.64-5.07-1.46-6.51-4.48-3.15-10.36-3.17-14.94-6.12-5.79-3.75-4.68-13.59 1.22-16.72z"/>
  <path id="path218" d="m371.46 401.55c1.44-0.11 2.87-0.2 4.32-0.3 0.8 9.23 0.27 18.5 0.48 27.74 0.13 4.14-0.39 8.26-0.68 12.39-1.39 0.07-2.78 0.21-4.17 0.31-0.04-13.38-0.11-26.76 0.05-40.14z"/>
  <path id="path220" d="m390.24 412.23c3.68-7.16 11.74-11.78 19.81-10.96 4.63-0.4 8.62 2.02 12.43 4.28-0.68 1.12-1.35 2.24-2.02 3.36-5.03-2.39-10.81-4.41-16.37-2.66-7.59 1.86-12.67 10.13-11.22 17.75 1.15 6.69 7.01 12.92 14.08 12.87 4.03 0.5 7.72-1.3 11.48-2.4 1.9-0.87 2.85 1.59 4.3 2.32-4.34 2.95-9.36 5.29-14.75 4.94-9.13 0.17-17.63-6.94-19.37-15.84-0.55-4.56-0.72-9.53 1.63-13.66z"/>
  <path id="path222" d="m438.97 402.05c5.5-1.76 11.95-0.86 16.38 3.03-0.08 1.29-0.19 2.58-0.35 3.88-4.84-1.71-10.24-4.97-15.33-2.28-3.94 1.42-4.8 7.64-1.08 9.77 4.49 2.61 10.07 2.62 14.42 5.53 4.48 3.03 4.78 9.84 2.04 14.11-4.9 7.16-15.97 7.26-22.33 2.07-1.75-1.03-0.94-3.37-1.32-5.01 5.32 1.01 10.36 5.78 15.91 3.37 3.55-1.03 6.71-5.49 4.2-8.93-4.38-6.3-14.69-3.6-18.66-10.48-3.68-5.6 0.35-12.92 6.12-15.06z"/>
  <path id="path224" d="m493.39 401.53c1.44-0.09 2.89-0.17 4.34-0.25-0.03 13.6 0.03 27.21 0 40.81 0.21 4.57-1.87 9.43-6.13 11.5-2.75 1.72-6.05 1.5-9.12 1.96-0.25-1.54-0.49-3.07-0.74-4.59 3.12-0.57 7.26 0.13 9.33-2.87 2.12-3.25 2.19-7.31 2.26-11.06-0.02-11.84-0.11-23.67 0.06-35.5z"/>
  <path id="path226" d="m524.47 401.75c5.46-0.99 11.61-0.82 16.23 2.63 5.25 3.77 9.21 10.01 8.97 16.63 0.43 10.61-8.89 20.86-19.67 20.71-8.51 0.29-16.45-5.65-19.11-13.65-4.48-10.5 2.83-23.47 13.58-26.32m0.03 4.84c-5.52 2.56-10.35 8.03-10.18 14.41-0.34 8.31 7.12 16.66 15.71 15.89 9.14 0.41 16.67-9.06 14.97-17.89-1.14-9.19-11.72-16.24-20.5-12.41z"/>
  <path id="path228" d="m560.43 401.93c1.48 0.24 2.79-0.64 4.11-1.16 0.27 9.09-0.11 18.2 0.15 27.3 0.13 3.73 1.8 8.15 5.73 9.26 3.89 0.56 8.64 0.84 11.62-2.22 2.91-3.27 3.47-7.89 3.56-12.1 0.06-7.07-0.01-14.15-0.04-21.22 1.6-0.16 3.2-0.3 4.82-0.43 0.13 12.23 0.08 24.46 0.05 36.7 0.64 2.86-2.75 3.19-4.67 3.85-0.13-1.95-0.21-3.87-0.28-5.81-2.67 2.46-5.65 4.9-9.38 5.38-4.69 0.61-10.27-0.12-13.4-4.05-2.95-3.82-2.4-8.9-2.47-13.43 0.18-7.36-0.24-14.73 0.2-22.07z"/>
  <path id="path230" d="m602.64 401.43c1.52-0.02 3.05-0.04 4.58-0.05 0.06 2.28 0.15 4.55 0.3 6.83 2.29-2.38 4.54-4.95 7.59-6.38 2.24-0.61 4.59-0.29 6.89-0.33-0.77 1.1-1.52 2.21-2.26 3.33-2.6 1.43-5.82 1.8-7.98 3.98-2.84 2.95-4.46 7.05-4.43 11.15-0.06 6.8 0 13.6 0.08 20.4-1.64 0.29-3.19 0.91-4.77 1.37-0.18-13.43-0.16-26.87 0-40.3z"/>
  <path id="path232" d="m633.57 406c2.4-1.7 4.73-3.76 7.67-4.43 4.99-0.71 10.94-0.48 14.44 3.7 3.02 3.1 3.15 7.63 3.06 11.7-0.09 8.01 0.07 16.02-0.15 24.03-1.41 0.25-2.81 0.49-4.2 0.75-0.25-8.6-0.08-17.2-0.07-25.8-0.01-3.01-0.19-6.52-2.73-8.58-5.61-5-15.7-1.89-17.96 5.1-0.97 9.53 0.47 19.19-0.9 28.72-1.4 0.12-2.8 0.24-4.2 0.37-0.21-13.29-0.11-26.58-0.05-39.87 0.97-0.11 2.92-0.33 3.9-0.44 0.39 1.58 0.79 3.16 1.19 4.75z"/>
  <path id="path234" d="m675.58 402.69c3.85-1.8 8.27-1.44 12.41-1.3 5.33 0.21 10.01 5.14 9.58 10.54-0.17 9.34 0.28 18.7-0.22 28.02-1.19 0.82-2.46 1.52-3.62 2.38-0.41-1.38-0.81-2.75-1.2-4.11-2.92 1.74-5.98 3.7-9.53 3.49-7.56 0.57-15.07-6.04-14.76-13.74-0.31-6.79 4.82-13.6 11.7-14.47 4.63-0.89 8.87 1.53 12.89 3.45-0.12-2.48-0.03-4.99-0.51-7.43-1.41-2.57-4.51-3.65-7.27-3.88-4.3-0.04-8.4 1.47-12.56 2.33 1-1.75 0.88-4.48 3.09-5.28m3.01 16.06c-4 1.5-6.14 6.1-5.84 10.17 1.29 6.42 9.62 10.64 15.35 7.05 5.57-2.98 6.21-11.61 1.79-15.82-3.17-2.37-7.67-3.24-11.3-1.4z"/>
 </g>
</svg>
